<?xml version="1.0" encoding="UTF-8"?>
<svg width="100pt" height="100pt" version="1.1" viewBox="0 0 100 100" xmlns="http://www.w3.org/2000/svg">
 <path d="m52.699 5.1992c-20.102 0-37.199 13.301-42.801 31.699h0.60156c1.6016 0 3.1016 0.30078 4.5 0.80078 5.1992-15.898 20.102-27.398 37.699-27.398 21.898 0 39.699 17.801 39.699 39.699s-17.797 39.699-39.699 39.699c-17.602 0-32.5-11.5-37.699-27.398-1.3984 0.5-2.8984 0.80078-4.5 0.80078h-0.60156c5.6016 18.301 22.699 31.699 42.801 31.699 24.699 0 44.801-20.102 44.801-44.801s-20.102-44.801-44.801-44.801z" fill="#20639c"/>
 <path d="m18.5 50c0 4.418-3.582 8-8 8s-8-3.582-8-8 3.582-8 8-8 8 3.582 8 8" fill="#20639c"/>
 <path d="m65.801 24.301c-0.10156 1.8008-0.5 3.5-1.3008 5.1016 7.1992 4.1016 12 11.801 12 20.602 0 1.3008-0.10156 2.6016-0.30078 3.8984 1.8008 0.39844 3.3984 1.1992 4.6992 2.3008 0.39844-2 0.69922-4.1016 0.69922-6.1992 0.003906-11.203-6.3984-20.902-15.797-25.703z" fill="#20639c"/>
 <path d="m23.898 50c0 15.898 13 28.801 28.898 28.801 4.1016 0 8-0.89844 11.602-2.3984-1.3008-1.1992-2.3984-2.6016-3.1992-4.1992-2.6016 1-5.5 1.6016-8.3984 1.6016-13.199-0.003907-23.801-10.703-23.801-23.805 0-8.8008 4.8008-16.5 12-20.602-0.80078-1.5-1.1992-3.3008-1.3008-5.1016-9.3984 4.8047-15.801 14.504-15.801 25.703z" fill="#20639c"/>
 <path d="m65.699 50c0 7.1797-5.8203 13-13 13-7.1797 0-13-5.8203-13-13s5.8203-13 13-13c7.1797 0 13 5.8203 13 13" fill="#20639c"/>
 <path d="m81 66.602c0 4.418-3.582 8-8 8s-8-3.582-8-8c0-4.418 3.582-8 8-8s8 3.582 8 8" fill="#20639c"/>
 <path d="m60.699 23.699c0 4.418-3.582 8-8 8s-8-3.582-8-8 3.582-8 8-8 8 3.582 8 8" fill="#20639c"/>
</svg>
