<?xml version="1.0" encoding="UTF-8"?>
<svg width="100pt" height="100pt" version="1.1" viewBox="0 0 100 100" xmlns="http://www.w3.org/2000/svg">
 <path d="m82.5 43.5c-3.0664 0-5.6367 2.1367-6.3164 5h-17.32c-0.23047-1.3633-0.76562-2.625-1.5352-3.707l6.7656-6.7656c0.99219 0.61328 2.1562 0.97266 3.4062 0.97266 3.5859 0 6.5-2.9141 6.5-6.5s-2.9141-6.5-6.5-6.5-6.5 2.9141-6.5 6.5c0 1.25 0.35938 2.4141 0.97266 3.4062l-6.7656 6.7656c-1.082-0.77344-2.3438-1.3047-3.707-1.5352v-17.32c2.8633-0.67969 5-3.25 5-6.3164 0-3.5859-2.9141-6.5-6.5-6.5s-6.5 2.9141-6.5 6.5c0 3.0664 2.1367 5.6367 5 6.3164v17.32c-1.3633 0.23047-2.625 0.76562-3.707 1.5352l-4.2656-4.2656c0.61328-0.99219 0.97266-2.1562 0.97266-3.4062 0-3.5859-2.9141-6.5-6.5-6.5s-6.5 2.9141-6.5 6.5 2.9141 6.5 6.5 6.5c1.25 0 2.4141-0.35938 3.4062-0.97266l4.2656 4.2656c-0.77344 1.082-1.3047 2.3438-1.5352 3.707h-17.32c-0.67969-2.8633-3.25-5-6.3164-5-3.5859 0-6.5 2.9141-6.5 6.5s2.9141 6.5 6.5 6.5c3.0664 0 5.6367-2.1367 6.3164-5h17.32c0.23047 1.3633 0.76562 2.625 1.5352 3.707l-1.7656 1.7656c-0.99219-0.61328-2.1562-0.97266-3.4062-0.97266-3.5859 0-6.5 2.9141-6.5 6.5s2.9141 6.5 6.5 6.5 6.5-2.9141 6.5-6.5c0-1.25-0.35938-2.4141-0.97266-3.4062l1.7656-1.7656c1.082 0.77344 2.3438 1.3047 3.707 1.5352v17.316c-2.8633 0.67969-5 3.25-5 6.3164 0 3.5859 2.9141 6.5 6.5 6.5s6.5-2.9141 6.5-6.5c0-3.0664-2.1367-5.6367-5-6.3164v-17.316c1.3633-0.23047 2.625-0.76562 3.707-1.5352l9.2656 9.2656c-0.61328 0.99219-0.97266 2.1562-0.97266 3.4062 0 3.5859 2.9141 6.5 6.5 6.5s6.5-2.9141 6.5-6.5-2.9141-6.5-6.5-6.5c-1.25 0-2.4141 0.35938-3.4062 0.97266l-9.2656-9.2656c0.77344-1.082 1.3047-2.3438 1.5352-3.707h17.316c0.67969 2.8633 3.25 5 6.3164 5 3.5859 0 6.5-2.9141 6.5-6.5 0.003906-3.5859-2.9102-6.5-6.4961-6.5z" fill="#20639c"/>
</svg>
