<?xml version="1.0" encoding="UTF-8"?>
<svg width="100pt" height="100pt" version="1.1" viewBox="0 0 100 100" xmlns="http://www.w3.org/2000/svg">
 <path d="m91.5 39h-0.60156v-8c0-2.1992-1.8008-4-3.8984-4h-78c-2.1992 0-4 1.8008-4 4v38c0 2.1992 1.8008 4 4 4h78c2.1992 0 3.8984-1.8008 3.8984-4v-8h0.60156c2 0 3.5-1.6992 3.5-3.8008v-14.398c0-2.1016-1.6016-3.8008-3.5-3.8008zm-0.5 18h-4.1016l0.10156 12h-78v-38h78v12h4zm-78-22.5h15.801v31h-15.801zm18.102 0h15.801v31h-15.801zm18 0h15.801v31h-15.801zm18.098 0h15.801v31h-15.801z" fill="#20639c"/>
</svg>
