<?xml version="1.0" encoding="UTF-8"?>
<svg width="100pt" height="100pt" version="1.1" viewBox="0 0 100 100" xmlns="http://www.w3.org/2000/svg">
 <path d="m31.75 6.5703h8.0273v-3.6484c0-1.4609 1.4609-2.918 3.6484-2.918h13.867c1.4609 0 2.918 1.4609 2.918 2.918v3.6484h8.0273c5.8398 0 10.219 4.3789 10.219 10.219v72.992c0 5.8398-4.3789 10.219-10.219 10.219h-36.496c-5.8398 0-10.219-4.3789-10.219-10.219v-72.992c0-5.8398 4.3789-10.219 10.219-10.219zm36.496 6.5703h-36.496c-1.4609 0-2.918 1.4609-2.918 3.6484v72.992c0 2.1914 1.4609 3.6484 2.918 3.6484h36.496c2.1914 0 3.6484-1.4609 3.6484-3.6484v-72.992c0-2.1914-1.4609-3.6484-3.6484-3.6484z" fill="#20639c"/>
 <path d="m68.977 79.562v10.219h-37.227v-10.219z" fill="#20639c" fill-rule="evenodd"/>
 <path d="m68.977 67.152v9.4883h-37.227v-9.4883z" fill="#20639c" fill-rule="evenodd"/>
 <path d="m68.977 54.746v9.4883h-37.227v-9.4883z" fill="#20639c" fill-rule="evenodd"/>
 <path d="m68.977 42.336v9.4883h-37.227v-9.4883z" fill="#20639c" fill-rule="evenodd"/>
 <path d="m68.977 29.926v9.4922h-37.227v-9.4922z" fill="#20639c" fill-rule="evenodd"/>
 <path d="m31.75 16.789h37.227v10.219h-37.227z" fill="#20639c" fill-rule="evenodd"/>
</svg>
