<?xml version="1.0" encoding="UTF-8"?>
<svg width="100pt" height="100pt" version="1.1" viewBox="0 0 100 100" xmlns="http://www.w3.org/2000/svg">
 <path d="m33.738 26.332h32.52v47.133h-32.52zm-26.516 54.457h85.555v-4.9102h-85.555zm53.789-56.871v-4.707h-22.762v4.7031zm-47.086 11.648h17.395v37.898h-17.395zm5.5781 9.8164h6.2305v-6.2305h-6.2305zm0 12.211h6.2305v-6.2305h-6.2305zm0 12.211h6.2305v-6.2422h-6.2305zm49.168-22.809h17.402v26.469h-17.402zm5.5781 10.43h6.2422v-6.2305h-6.2383v6.2305zm0 12.816h6.2422l0.003906-6.2344h-6.2422v6.2344zm-20.961-6.7031v6.2344h6.2344v-6.2344zm-12.816 0v6.2344h6.2305l0.003906-6.2344zm12.816-10.633v6.2344h6.2344v-6.2305zm-12.816 0v6.2344h6.2305l0.003906-6.2305zm12.816-10.633v6.2305h6.2344v-6.2305zm-12.816 0v6.2305h6.2305v-6.2305zm12.816-10.633v6.2305h6.2344v-6.2305zm-12.816 0v6.2305h6.2305v-6.2305z" fill="#20629c" fill-rule="evenodd"/>
</svg>
