<?xml version="1.0" encoding="UTF-8" standalone="no"?>
<svg
   xmlns:dc="http://purl.org/dc/elements/1.1/"
   xmlns:cc="http://creativecommons.org/ns#"
   xmlns:rdf="http://www.w3.org/1999/02/22-rdf-syntax-ns#"
   xmlns:svg="http://www.w3.org/2000/svg"
   xmlns="http://www.w3.org/2000/svg"
   xmlns:sodipodi="http://sodipodi.sourceforge.net/DTD/sodipodi-0.dtd"
   xmlns:inkscape="http://www.inkscape.org/namespaces/inkscape"
   width="127.45818mm"
   height="74.627892mm"
   viewBox="0 0 127.45818 74.627892"
   version="1.1"
   id="svg2442"
   inkscape:version="1.0.1 (3bc2e813f5, 2020-09-07)"
   sodipodi:docname="logo.svg">
  <defs
     id="defs2436">
    <rect
       x="145.14285"
       y="21.544643"
       width="140.60715"
       height="62.744049"
       id="rect2245-4" />
    <rect
       x="145.14285"
       y="21.544643"
       width="140.60715"
       height="62.744049"
       id="rect2408" />
  </defs>
  <sodipodi:namedview
     id="base"
     pagecolor="#ffffff"
     bordercolor="#666666"
     borderopacity="1.0"
     inkscape:pageopacity="0.0"
     inkscape:pageshadow="2"
     inkscape:zoom="0.35"
     inkscape:cx="323.72298"
     inkscape:cy="475.3148"
     inkscape:document-units="mm"
     inkscape:current-layer="layer1"
     inkscape:document-rotation="0"
     showgrid="false"
     lock-margins="true"
     fit-margin-top="5"
     fit-margin-left="5"
     fit-margin-right="5"
     fit-margin-bottom="5"
     inkscape:window-width="1920"
     inkscape:window-height="1027"
     inkscape:window-x="525"
     inkscape:window-y="-8"
     inkscape:window-maximized="1" />
  <metadata
     id="metadata2439">
    <rdf:RDF>
      <cc:Work
         rdf:about="">
        <dc:format>image/svg+xml</dc:format>
        <dc:type
           rdf:resource="http://purl.org/dc/dcmitype/StillImage" />
        <dc:title></dc:title>
      </cc:Work>
    </rdf:RDF>
  </metadata>
  <g
     inkscape:label="Layer 1"
     inkscape:groupmode="layer"
     id="layer1"
     transform="translate(-20.181628,-22.406292)">
    <g
       id="g3101">
      <g
         id="g2071-7-8"
         transform="matrix(0.72750675,0,0,0.72750675,42.86531,-71.055323)">
        <g
           id="g2241-7"
           transform="matrix(0.77587086,0,0,0.77587086,-15.928659,47.667361)">
          <g
             id="g2218-8">
            <g
               id="g1563-9-9-4"
               transform="matrix(1.4200619,0,0,1.4200619,-14.572065,127.41195)"
               style="stroke:#84a9c8;stroke-width:2.45183;stroke-linecap:round;stroke-linejoin:round;stroke-miterlimit:4;stroke-dasharray:none;stroke-opacity:1">
              <path
                 d="m 67.648,53.957 c 0,0 -0.26563,0.08594 -0.72656,0.23047 -0.23438,0.07422 -0.51562,0.16406 -0.83594,0.26172 -0.32422,0.10156 -0.69141,0.21484 -1.0938,0.31641 -0.40625,0.10547 -0.84766,0.21875 -1.3125,0.33984 -0.46484,0.13281 -0.96094,0.22266 -1.4766,0.32812 -0.51172,0.10547 -1.043,0.21094 -1.5859,0.32031 -0.54297,0.08594 -1.0938,0.17969 -1.6445,0.26562 -0.27734,0.04688 -0.55469,0.09375 -0.82812,0.14062 -0.27734,0.03516 -0.55469,0.07031 -0.83203,0.10547 -0.54297,0.07031 -1.0781,0.13281 -1.5977,0.17969 -0.51953,0.03906 -1.0234,0.07031 -1.5,0.08203 -0.48438,0 -0.94141,-0.01953 -1.3633,-0.04297 -1.6875,-0.07813 -2.8008,-0.27344 -2.8008,-0.27344 -0.02734,-0.0039 -0.04688,-0.03125 -0.04297,-0.05859 0.0039,-0.02344 0.01953,-0.03516 0.03906,-0.04297 h 0.0039 c 0,0 1.1094,-0.25391 2.7539,-0.41797 0.41406,-0.04688 0.85547,-0.08203 1.3281,-0.12109 0.47266,-0.0625 0.97656,-0.11719 1.4961,-0.15625 0.51953,-0.03516 1.0586,-0.0625 1.6055,-0.07422 0.26953,-0.01172 0.55859,-0.01563 0.8125,-0.03125 0.27344,-0.02344 0.55078,-0.05078 0.82422,-0.07422 0.55078,-0.05078 1.1016,-0.10156 1.6445,-0.15234 0.53906,-0.07031 1.0703,-0.14062 1.5859,-0.21094 0.51563,-0.06641 1.0117,-0.13281 1.4766,-0.21875 0.46875,-0.07813 0.91016,-0.15625 1.3203,-0.22266 0.41016,-0.0625 0.78516,-0.14453 1.1133,-0.21875 0.33203,-0.07031 0.62109,-0.13281 0.85938,-0.1875 0.47656,-0.10156 0.75,-0.15625 0.75,-0.15625 0.02734,-0.0078 0.05078,0.01172 0.05859,0.03906 0.0078,0.01953 -0.0078,0.04688 -0.03125,0.05078 z"
                 id="path1534-5-8-5"
                 style="stroke:#84a9c8;stroke-width:2.45183;stroke-linecap:round;stroke-linejoin:round;stroke-miterlimit:4;stroke-dasharray:none;stroke-opacity:1" />
              <path
                 d="m 50.055,35.07 c 0,0 0.57812,-0.0039 1.5938,-0.01562 0.50781,0.0078 1.125,0 1.832,0.02344 0.70703,0.01172 1.5039,0.04688 2.375,0.08984 0.4375,0.02734 0.88672,0.05859 1.3555,0.08594 0.46875,0.03906 0.95312,0.08203 1.4531,0.125 0.99609,0.09766 2.043,0.22266 3.1211,0.39062 1.082,0.15625 2.1914,0.36328 3.3164,0.59766 1.1211,0.23437 2.2578,0.52734 3.3789,0.85156 1.125,0.32031 2.2344,0.71094 3.3086,1.1445 1.0781,0.43359 2.1094,0.94141 3.0664,1.5273 0.94531,0.59766 1.8125,1.2852 2.5,2.0859 0.35156,0.39063 0.64062,0.82813 0.89062,1.2656 0.11719,0.22656 0.21484,0.45703 0.30469,0.68359 0.06641,0.23828 0.16406,0.46094 0.19141,0.69922 0.04297,0.23438 0.08594,0.46484 0.08203,0.69141 l 0.0039,0.16797 0.0039,0.08594 0.0039,0.04297 v 0.02344 l -0.0039,0.03516 v 0.01172 c -0.01172,0.10156 -0.02344,0.19922 -0.03516,0.30078 -0.01563,0.10156 -0.01563,0.19141 -0.04297,0.29688 -0.02344,0.10547 -0.05078,0.20703 -0.07422,0.3125 -0.04297,0.21094 -0.12109,0.38672 -0.19141,0.55859 -0.30078,0.69141 -0.67969,1.2148 -1.043,1.5898 -0.16797,0.19922 -0.34766,0.34766 -0.48828,0.48828 -0.14062,0.14062 -0.27734,0.24609 -0.38672,0.32812 -0.21484,0.16797 -0.33203,0.25781 -0.33203,0.25781 -0.01953,0.01953 -0.05078,0.01172 -0.07031,-0.0078 -0.01563,-0.01953 -0.01172,-0.04688 0.0039,-0.0625 l 0.0039,-0.0039 c 0,0 0.09766,-0.10547 0.27734,-0.30859 0.18359,-0.19922 0.44141,-0.49609 0.72266,-0.90625 0.06641,-0.10156 0.14062,-0.21094 0.21484,-0.32422 0.06641,-0.11719 0.13281,-0.24609 0.20312,-0.375 0.07813,-0.125 0.13281,-0.26562 0.19141,-0.41406 0.0625,-0.14453 0.125,-0.29297 0.16406,-0.45703 0.04297,-0.16016 0.09766,-0.32422 0.11328,-0.48828 0.01172,-0.07813 0.02734,-0.16406 0.04297,-0.24609 0.01563,-0.07813 0.0078,-0.1875 0.01172,-0.28516 0.0039,-0.09766 0.0039,-0.19922 0.0078,-0.30078 l 0.0039,-0.01172 c -0.0039,0.04688 -0.0039,0.0078 -0.0039,0.01563 l -0.0039,-0.01563 -0.01172,-0.10547 -0.01953,-0.14062 c -0.01172,-0.1875 -0.0625,-0.375 -0.10938,-0.56641 -0.19922,-0.76172 -0.6875,-1.5117 -1.3281,-2.1875 -0.65234,-0.67578 -1.4531,-1.2969 -2.3398,-1.8555 -0.88281,-0.57422 -1.8633,-1.0781 -2.8789,-1.5508 -1.0195,-0.46875 -2.0859,-0.88281 -3.1797,-1.2383 -4.3672,-1.4414 -8.9688,-2.1133 -12.414,-2.4648 -0.86328,-0.07813 -1.6562,-0.14844 -2.3594,-0.19141 -0.70312,-0.05469 -1.3164,-0.07031 -1.8242,-0.10156 -1.0117,-0.03125 -1.5938,-0.05078 -1.5938,-0.05078 -0.02734,0 -0.05078,-0.02344 -0.04688,-0.05078 -0.0078,-0.02734 0.01172,-0.05078 0.03906,-0.05078 z"
                 id="path1536-0-4-6"
                 style="stroke:#84a9c8;stroke-width:2.45183;stroke-linecap:round;stroke-linejoin:round;stroke-miterlimit:4;stroke-dasharray:none;stroke-opacity:1" />
              <path
                 d="m 41.082,55.68 c 0,0 -0.125,-0.01563 -0.36328,-0.03906 -0.23438,-0.02734 -0.58203,-0.05859 -1.0234,-0.11328 -0.44141,-0.05078 -0.97656,-0.12109 -1.5898,-0.21094 -0.61324,-0.08985 -1.3008,-0.20312 -2.0547,-0.33984 -1.5,-0.28125 -3.2461,-0.65625 -5.0703,-1.2344 -1.8242,-0.57422 -3.75,-1.3125 -5.5352,-2.3711 -0.89062,-0.52734 -1.7539,-1.1367 -2.5,-1.8789 -0.375,-0.36719 -0.71875,-0.77344 -1.0039,-1.2227 -0.28906,-0.44141 -0.51953,-0.92969 -0.66016,-1.4453 -0.13281,-0.50781 -0.19531,-1.0625 -0.13281,-1.5469 0.0039,-0.10547 0.03125,-0.25 0.05469,-0.37891 0.02734,-0.12891 0.04297,-0.26953 0.08594,-0.38281 0.03516,-0.11719 0.07422,-0.23828 0.10938,-0.35547 0.04297,-0.11328 0.09375,-0.22266 0.14062,-0.33594 0.38281,-0.88281 0.98047,-1.5508 1.5547,-2.0938 0.58203,-0.53906 1.1719,-0.95312 1.7109,-1.2773 0.26953,-0.16406 0.52734,-0.30469 0.76562,-0.43359 0.24609,-0.11719 0.46484,-0.23047 0.67188,-0.32422 0.41016,-0.18359 0.73047,-0.32422 0.95703,-0.40625 0.22266,-0.08594 0.34375,-0.12891 0.34375,-0.12891 0.02734,-0.01172 0.05469,0.0039 0.0625,0.02734 0.0078,0.02344 -0.0039,0.04688 -0.02344,0.0625 0,0 -0.10547,0.06641 -0.30859,0.19531 -0.20313,0.125 -0.49609,0.30859 -0.86328,0.55469 -0.71875,0.5 -1.7695,1.2148 -2.7578,2.293 -0.24609,0.26562 -0.48047,0.5625 -0.69141,0.88281 -0.11328,0.15625 -0.19922,0.32812 -0.30469,0.49219 -0.07813,0.17578 -0.18359,0.34766 -0.23828,0.53516 -0.03125,0.09375 -0.07031,0.18359 -0.10156,0.27734 -0.02344,0.09375 -0.05078,0.19141 -0.07422,0.28516 -0.03125,0.09766 -0.03516,0.1875 -0.05078,0.27734 -0.01172,0.09375 -0.03516,0.17188 -0.03516,0.29688 -0.03516,0.42578 0.01172,0.8125 0.12109,1.2227 0.09766,0.40625 0.26953,0.80859 0.50781,1.1875 0.23047,0.38281 0.50391,0.75781 0.82812,1.1016 0.63281,0.70313 1.418,1.3086 2.2461,1.8477 1.668,1.0742 3.5273,1.8711 5.3008,2.5 0.89062,0.31641 1.7617,0.58203 2.5938,0.82031 0.83203,0.24609 1.6289,0.44141 2.3633,0.62109 0.73828,0.17188 1.418,0.3125 2.0234,0.43359 0.60547,0.11719 1.1328,0.21484 1.5703,0.28906 0.4375,0.07813 0.78125,0.125 1.0156,0.16406 0.23438,0.03906 0.35938,0.05859 0.35938,0.05859 0.02734,0.0039 0.04297,0.02734 0.04297,0.05859 0.0039,0.01953 -0.01953,0.03906 -0.04688,0.03516 z"
                 id="path1538-7-8-9"
                 style="stroke:#84a9c8;stroke-width:2.45183;stroke-linecap:round;stroke-linejoin:round;stroke-miterlimit:4;stroke-dasharray:none;stroke-opacity:1" />
              <path
                 d="m 66.738,59.441 c 0,0 -0.26172,0.05859 -0.75391,0.16797 -0.48828,0.10938 -1.207,0.27344 -2.1211,0.46484 -0.92578,0.15625 -2.0469,0.35547 -3.3438,0.55859 -0.64844,0.08594 -1.3359,0.17578 -2.0586,0.27344 -0.72656,0.08984 -1.5,0.14844 -2.3008,0.22656 -1.6094,0.13672 -3.3477,0.25 -5.1953,0.28516 -0.92578,0.03516 -1.875,0.02734 -2.8398,0.02734 -0.97266,-0.01172 -1.9648,-0.03516 -2.9688,-0.08594 -2.0156,-0.09375 -4.0938,-0.24609 -6.1992,-0.51172 -2.1016,-0.26172 -4.2305,-0.61328 -6.3359,-1.0664 -2.1055,-0.46484 -4.1914,-1.0391 -6.2031,-1.7344 -2.0156,-0.6875 -3.9375,-1.5508 -5.7148,-2.5547 -0.87891,-0.51563 -1.7383,-1.0508 -2.5039,-1.6719 -0.77344,-0.61719 -1.4961,-1.2734 -2.0898,-2.0234 -0.59766,-0.74219 -1.0898,-1.5508 -1.3945,-2.4102 -0.0625,-0.22266 -0.14062,-0.43359 -0.19141,-0.65234 -0.03906,-0.22266 -0.07813,-0.44141 -0.11719,-0.65625 -0.01563,-0.21875 -0.02344,-0.4375 -0.03516,-0.65234 l -0.0039,-0.07813 c 0,-0.01953 -0.0039,-0.01172 0,-0.05469 l 0.0039,-0.03906 0.01172,-0.15234 0.02344,-0.30078 c 0.18359,-1.7266 1.1016,-3.0273 1.9766,-4.0039 0.90625,-0.97266 1.832,-1.6602 2.6133,-2.1836 0.78125,-0.52734 1.4375,-0.86719 1.8828,-1.1016 0.44922,-0.22656 0.6875,-0.34375 0.6875,-0.34375 0,0 -0.23047,0.13672 -0.66016,0.39062 -0.42969,0.26172 -1.0469,0.66016 -1.7969,1.2109 -0.74609,0.55469 -1.6211,1.2852 -2.4453,2.2695 -0.40234,0.49609 -0.79297,1.0586 -1.1016,1.6953 -0.30859,0.63281 -0.53516,1.3594 -0.58594,2.0977 -0.14062,1.5586 0.55078,3.1602 1.7031,4.4961 0.57031,0.67969 1.2695,1.2812 2.0195,1.8516 0.75,0.57031 1.5742,1.0781 2.4336,1.5586 1.7305,0.94922 3.6289,1.7383 5.6016,2.4102 1.9727,0.67187 4.0273,1.2227 6.1016,1.6719 2.0742,0.45703 4.1719,0.81641 6.25,1.0859 2.0781,0.26562 4.1289,0.47266 6.1211,0.59375 0.99609,0.06641 1.9766,0.09766 2.9336,0.14062 0.96875,0.02344 1.9062,0.05859 2.8203,0.04688 0.91797,-0.0039 1.8086,0.0078 2.668,-0.02734 0.85938,-0.03125 1.6953,-0.02734 2.4922,-0.08594 0.79688,-0.04688 1.5625,-0.08203 2.293,-0.13281 0.73047,-0.05859 1.4219,-0.11328 2.0703,-0.16406 1.2891,-0.13281 2.418,-0.27734 3.3477,-0.38281 0.92578,-0.14844 1.6523,-0.25391 2.1523,-0.32812 0.48828,-0.08203 0.75391,-0.125 0.75391,-0.125 z"
                 id="path1540-1-0-3"
                 style="stroke:#84a9c8;stroke-width:2.45183;stroke-linecap:round;stroke-linejoin:round;stroke-miterlimit:4;stroke-dasharray:none;stroke-opacity:1" />
              <path
                 d="m 75.086,37.602 c 0,0 0.125,0.03906 0.35937,0.11719 0.23047,0.07813 0.57422,0.17969 1.0039,0.33594 0.42969,0.16406 0.95312,0.34766 1.5352,0.61328 0.29297,0.125 0.60547,0.26172 0.92578,0.42188 0.32422,0.15625 0.66406,0.32422 1.0039,0.51953 0.17188,0.09766 0.35156,0.19141 0.53125,0.29297 0.17969,0.10156 0.35156,0.21875 0.53516,0.32812 0.36719,0.21875 0.72266,0.48828 1.0977,0.75 0.72266,0.55469 1.4688,1.1875 2.1211,1.9727 0.64062,0.78906 1.2227,1.7148 1.5156,2.7891 0.06641,0.26953 0.11719,0.54687 0.16797,0.82031 l 0.03125,0.42188 0.01563,0.20703 0.0078,0.10547 0.0039,0.01172 -0.0039,0.05078 v 0.02344 l -0.0039,0.05078 c -0.02344,0.26172 -0.03125,0.51172 -0.0625,0.78125 -0.0625,0.28516 -0.12109,0.57812 -0.1875,0.85938 -0.33594,1.082 -0.94922,2.0312 -1.6445,2.8398 -0.33594,0.42188 -0.73437,0.76953 -1.1055,1.1328 -0.40625,0.32031 -0.78516,0.66797 -1.2031,0.94141 -0.20312,0.14453 -0.40625,0.28906 -0.60547,0.42969 -0.20703,0.12891 -0.41406,0.25391 -0.61719,0.37891 -0.40625,0.25391 -0.82031,0.46875 -1.2227,0.68359 -0.80469,0.42188 -1.5859,0.77344 -2.3164,1.0625 -0.72266,0.3125 -1.4141,0.52734 -2.0156,0.73828 -0.60938,0.1875 -1.1406,0.35156 -1.582,0.47266 -0.88672,0.22656 -1.3945,0.34766 -1.3945,0.34766 0,0 0.48438,-0.19922 1.3281,-0.53516 0.41797,-0.17578 0.92578,-0.39453 1.5117,-0.64062 0.28516,-0.13281 0.58984,-0.27344 0.91406,-0.42188 0.32422,-0.14453 0.65625,-0.30469 1,-0.48047 0.34766,-0.17578 0.71094,-0.34766 1.0703,-0.55859 0.35938,-0.20703 0.75,-0.39453 1.1172,-0.63281 0.37891,-0.23047 0.76953,-0.45703 1.1445,-0.72266 0.19141,-0.12891 0.38281,-0.26172 0.57812,-0.39062 0.1875,-0.14062 0.375,-0.28516 0.5625,-0.42969 0.39453,-0.27344 0.73438,-0.61328 1.1055,-0.92969 0.33203,-0.35156 0.69531,-0.67969 0.99609,-1.0625 0.625,-0.74609 1.1484,-1.5938 1.4258,-2.5117 l 0.16016,-0.66016 c 0.03516,-0.24609 0.04688,-0.51562 0.07031,-0.76953 l 0.0039,-0.05078 0.0039,-0.02344 c 0,0.01172 0.0039,-0.04688 -0.0039,0.02344 v -0.01172 l -0.0078,-0.08594 -0.0078,-0.17578 -0.02344,-0.35156 c -0.04297,-0.23047 -0.08203,-0.46484 -0.13281,-0.69141 -0.24609,-0.91016 -0.70703,-1.7578 -1.2734,-2.4922 -0.57812,-0.73438 -1.2383,-1.375 -1.9023,-1.9414 -0.33984,-0.27344 -0.67188,-0.54297 -1.0078,-0.78125 -0.16797,-0.12109 -0.33203,-0.24609 -0.49609,-0.35938 -0.16797,-0.10937 -0.32812,-0.21875 -0.48828,-0.32422 -0.32031,-0.21875 -0.64062,-0.40234 -0.94141,-0.58594 -0.29688,-0.1875 -0.59375,-0.35156 -0.86719,-0.50391 -0.55078,-0.3125 -1.043,-0.55859 -1.4414,-0.76953 -0.82031,-0.39453 -1.2891,-0.62891 -1.2891,-0.62891 z"
                 id="path1542-0-7-5"
                 style="stroke:#84a9c8;stroke-width:2.45183;stroke-linecap:round;stroke-linejoin:round;stroke-miterlimit:4;stroke-dasharray:none;stroke-opacity:1" />
              <path
                 d="m 31.129,67.336 c 0,0 -0.20312,-0.03516 -0.58594,-0.10938 -0.38281,-0.07031 -0.94141,-0.17187 -1.6562,-0.31641 -0.71484,-0.14062 -1.5742,-0.33203 -2.5586,-0.56641 -0.98438,-0.23047 -2.0938,-0.51953 -3.2891,-0.86328 -1.1953,-0.35156 -2.4883,-0.75391 -3.832,-1.25 -1.3438,-0.48828 -2.7422,-1.0703 -4.1562,-1.7461 -1.4102,-0.67969 -2.8359,-1.457 -4.2109,-2.375 -1.3672,-0.92578 -2.6953,-1.9805 -3.8477,-3.2344 -1.1484,-1.25 -2.1367,-2.707 -2.6602,-4.3477 -0.26953,-0.8125 -0.4375,-1.6641 -0.44141,-2.5156 L 3.88684,49.93359 3.88293,49.91015 V 49.86327 L 3.88684,49.82421 3.89465,49.67577 3.910275,49.37499 3.933713,48.92968 3.95715,48.76952 c 0.074219,-0.42188 0.12109,-0.85938 0.25,-1.2422 0.46094,-1.5859 1.2852,-2.9648 2.2383,-4.082 0.94922,-1.1289 2,-2.0312 3.0078,-2.793 0.25781,-0.18359 0.50781,-0.36719 0.75391,-0.54297 0.24609,-0.17188 0.50391,-0.32031 0.74219,-0.47656 0.48047,-0.31641 0.95703,-0.57422 1.4023,-0.82812 0.89063,-0.49609 1.6875,-0.89063 2.3594,-1.1758 0.66406,-0.30469 1.1953,-0.51172 1.5586,-0.65625 0.36328,-0.14062 0.55469,-0.21875 0.55469,-0.21875 0.02734,-0.01172 0.05469,0.0039 0.06641,0.02734 0.0078,0.02344 0,0.05078 -0.02344,0.0625 h -0.0039 c 0,0 -0.18359,0.09766 -0.52344,0.28516 -0.33985,0.187504 -0.85156,0.4375 -1.4727,0.80859 -0.3125,0.17969 -0.66406,0.375 -1.0312,0.60938 -0.36719,0.23047 -0.78125,0.45703 -1.1914,0.74219 -0.41797,0.27734 -0.86719,0.56641 -1.3086,0.90625 -0.22266,0.16797 -0.46094,0.33203 -0.6875,0.51563 -0.23047,0.18359 -0.46484,0.37109 -0.69922,0.5625 -0.93359,0.78906 -1.8984,1.6953 -2.7539,2.7773 -0.84766,1.082 -1.6016,2.3359 -1.9883,3.7539 -0.125,0.35156 -0.16016,0.69922 -0.23828,1.0508 l -0.023438,0.13281 -0.011718,0.14844 -0.023438,0.30078 -0.019531,0.29688 -0.011719,0.14844 v 0.03906 -0.01172 0.01953 l 0.00391,0.07031 c -0.00391,0.75391 0.12109,1.5117 0.33594,2.2539 0.42969,1.4922 1.3008,2.8789 2.3594,4.0938 1.0664,1.2148 2.3281,2.2695 3.6445,3.1992 1.3203,0.92578 2.707,1.7227 4.0781,2.4258 1.375,0.69922 2.75,1.2969 4.0664,1.8242 1.3164,0.53125 2.5898,0.96484 3.7695,1.3516 1.1797,0.37891 2.2734,0.69922 3.25,0.96094 0.97266,0.26172 1.8281,0.47656 2.5352,0.63672 0.70312,0.16797 1.2617,0.28516 1.6445,0.36719 0.37891,0.08203 0.58203,0.125 0.58203,0.125 0.02734,0.0078 0.04297,0.03516 0.03906,0.05859 -0.0078,0.03125 -0.03516,0.04688 -0.05859,0.03906 z"
                 id="path1544-6-7-2"
                 style="stroke:#84a9c8;stroke-width:2.45183;stroke-linecap:round;stroke-linejoin:round;stroke-miterlimit:4;stroke-dasharray:none;stroke-opacity:1" />
              <path
                 d="m 44.578,30.906 c 0,0 1.8867,-0.05859 5.1914,-0.16406 0.83203,-0.01563 1.7422,0 2.7422,0.0039 0.99609,0.03125 2.0742,0.03906 3.2266,0.10156 2.3008,0.10156 4.8984,0.28906 7.7148,0.63281 2.8164,0.34375 5.8594,0.82812 9.0352,1.5625 1.5898,0.35156 3.207,0.79297 4.8438,1.2812 1.6328,0.51172 3.293,1.0703 4.9414,1.7461 1.6445,0.67969 3.2891,1.4453 4.8906,2.3555 1.5977,0.90625 3.1562,1.9531 4.5664,3.2148 0.35156,0.32031 0.70703,0.63281 1.0273,0.98828 0.16406,0.17188 0.32813,0.34375 0.48828,0.51953 l 0.45312,0.55469 c 0.32031,0.35938 0.5625,0.78125 0.84375,1.1719 0.13281,0.20312 0.24219,0.42188 0.36328,0.63281 0.11719,0.21094 0.23828,0.42188 0.32812,0.64844 l 0.29297,0.67188 c 0.08594,0.23047 0.14844,0.46875 0.22266,0.69922 0.03516,0.11719 0.07422,0.23438 0.10547,0.35156 l 0.06641,0.36328 c 0.04297,0.24219 0.10156,0.48437 0.125,0.72656 l 0.05078,0.74219 0.01172,0.18359 -0.0078,0.19922 -0.01953,0.35547 c 0,0.46094 -0.12109,0.97266 -0.20312,1.4688 -0.48047,1.9219 -1.5156,3.6562 -2.8242,5.0703 -1.3008,1.4336 -2.8086,2.625 -4.3867,3.6602 -3.1719,2.0625 -6.5977,3.5234 -9.9766,4.6641 -3.3906,1.1172 -6.75,1.9297 -9.9688,2.4922 -3.2148,0.57031 -6.2773,0.93359 -9.1133,1.1562 -2.8359,0.23047 -5.4453,0.28125 -7.7539,0.29297 -0.57812,-0.0039 -1.1367,-0.0078 -1.6758,-0.0078 -0.53906,-0.01953 -1.0586,-0.03516 -1.5586,-0.05469 -0.99609,-0.04297 -1.9102,-0.08203 -2.7344,-0.11719 -0.20703,-0.0078 -0.40625,-0.01953 -0.60156,-0.02734 -0.19531,-0.01953 -0.38672,-0.03125 -0.56641,-0.05078 -0.36719,-0.03125 -0.71484,-0.0625 -1.0352,-0.08984 -0.64062,-0.05859 -1.1875,-0.10547 -1.6289,-0.14453 -0.88281,-0.08203 -1.3516,-0.125 -1.3516,-0.125 -0.02734,-0.0039 -0.04688,-0.02734 -0.04297,-0.05469 0.0039,-0.02734 0.02344,-0.04688 0.05078,-0.04688 h 0.0039 c 0,0 0.47266,0.01953 1.3555,0.05078 0.44141,0.01953 0.98438,0.03906 1.625,0.06641 0.32031,0.01563 0.66406,0.02734 1.0312,0.04688 0.18359,0.0078 0.37109,0.01563 0.56641,0.02344 h 0.60156 2.7383 c 0.49609,0 1.0117,0.0039 1.5508,0.0039 0.53516,-0.01562 1.0898,-0.02734 1.6641,-0.04297 2.2969,-0.07031 4.8828,-0.23828 7.6914,-0.50781 2.8086,-0.27344 5.8438,-0.6875 9.0117,-1.3086 0.39453,-0.07813 0.79297,-0.16016 1.1953,-0.23828 0.39844,-0.08984 0.80078,-0.17969 1.2031,-0.26953 0.8125,-0.16406 1.625,-0.37891 2.4453,-0.57422 1.6367,-0.42969 3.3086,-0.88672 4.9688,-1.457 3.332,-1.1016 6.6992,-2.5156 9.8008,-4.4688 1.543,-0.98047 3.0078,-2.1172 4.2539,-3.457 1.2578,-1.3242 2.2305,-2.9297 2.6914,-4.6719 0.07031,-0.4375 0.19141,-0.84375 0.19531,-1.332 L 95.32787,50.0467 95.33959,49.89045 95.32787,49.72248 95.29271,49.0506 C 95.27318,48.82794 95.2224,48.60529 95.18724,48.38263 L 95.12865,48.0506 95.0349,47.72638 c -0.06641,-0.21484 -0.125,-0.43359 -0.19922,-0.64844 l -0.26172,-0.625 C 94.49583,46.242 94.37865,46.04278 94.26927,45.84356 94.15599,45.64434 94.05833,45.44122 93.93333,45.24981 93.67161,44.87872 93.44505,44.48028 93.14427,44.13261 l -0.42969,-0.53516 c -0.14844,-0.17188 -0.30859,-0.33594 -0.46484,-0.50391 -0.30078,-0.34375 -0.64062,-0.64844 -0.97656,-0.96094 -1.3516,-1.2305 -2.8633,-2.2695 -4.4219,-3.1797 -1.5625,-0.90625 -3.1758,-1.6797 -4.7969,-2.3672 -1.625,-0.68359 -3.2617,-1.2539 -4.875,-1.7773 -0.8125,-0.24219 -1.6133,-0.5 -2.418,-0.70703 -0.40234,-0.10937 -0.80078,-0.21484 -1.1914,-0.32422 -0.39844,-0.09766 -0.79297,-0.19531 -1.1875,-0.29297 -3.1445,-0.76953 -6.168,-1.2969 -8.9727,-1.6719 -2.8008,-0.38281 -5.3906,-0.60156 -7.6836,-0.73047 -1.1484,-0.07813 -2.2227,-0.10156 -3.2188,-0.14453 -0.99609,-0.01563 -1.9141,-0.04297 -2.7344,-0.03906 -3.3047,0.05859 -5.1914,0.09375 -5.1914,0.09375 -0.02734,0 -0.05078,-0.01953 -0.05078,-0.05078 0,-0.01172 0.01953,-0.03516 0.04688,-0.03516 z"
                 id="path1546-3-4-0"
                 style="stroke:#84a9c8;stroke-width:2.45183;stroke-linecap:round;stroke-linejoin:round;stroke-miterlimit:4;stroke-dasharray:none;stroke-opacity:1" />
            </g>
            <rect
               style="fill:#ffffff;fill-opacity:1;stroke:#888888;stroke-width:4.79152;stroke-linecap:square;stroke-miterlimit:10;stroke-dasharray:none;stroke-opacity:1"
               id="rect1353-5-6-8"
               width="76.51812"
               height="85.573517"
               x="18.050299"
               y="115.39628"
               ry="9.7647943"
               rx="7.4683008" />
          </g>
          <g
             id="g1429-7-2-1"
             transform="matrix(0.98933976,0,0,0.98933976,-208.65864,-10.790656)"
             style="stroke:#888888;stroke-opacity:1">
            <g
               id="g1376-2-7-2"
               transform="translate(-0.07953864)"
               style="stroke:#888888;stroke-opacity:1">
              <circle
                 style="fill:#ffffff;fill-opacity:1;stroke:#888888;stroke-width:2;stroke-linecap:square;stroke-miterlimit:10;stroke-dasharray:none;stroke-opacity:1"
                 id="path1357-4-2-4"
                 cx="243.22766"
                 cy="153.26933"
                 r="6.1510782" />
              <rect
                 style="fill:#ffffff;fill-opacity:1;stroke:#888888;stroke-width:2.54857;stroke-linecap:square;stroke-miterlimit:10;stroke-dasharray:none;stroke-opacity:1"
                 id="rect1355-1-5-2"
                 width="22.396709"
                 height="6.7430949"
                 x="221.257"
                 y="149.89778"
                 ry="3.3715475" />
            </g>
            <g
               id="g1376-7-5-4-2"
               transform="translate(-0.07953864,17.481397)"
               style="stroke:#888888;stroke-opacity:1">
              <circle
                 style="fill:#ffffff;fill-opacity:1;stroke:#888888;stroke-width:2;stroke-linecap:square;stroke-miterlimit:10;stroke-dasharray:none;stroke-opacity:1"
                 id="path1357-0-16-5-8"
                 cx="243.22766"
                 cy="153.26933"
                 r="6.1510782" />
              <rect
                 style="fill:#ffffff;fill-opacity:1;stroke:#888888;stroke-width:2.54857;stroke-linecap:square;stroke-miterlimit:10;stroke-dasharray:none;stroke-opacity:1"
                 id="rect1355-5-9-4-2"
                 width="22.396709"
                 height="6.7430949"
                 x="221.257"
                 y="149.89778"
                 ry="3.3715475" />
            </g>
            <g
               id="g1376-7-9-6-5-2"
               transform="translate(-0.07953864,34.96281)"
               style="stroke:#888888;stroke-opacity:1">
              <circle
                 style="fill:#ffffff;fill-opacity:1;stroke:#888888;stroke-width:2;stroke-linecap:square;stroke-miterlimit:10;stroke-dasharray:none;stroke-opacity:1"
                 id="path1357-0-8-2-9-6"
                 cx="243.22766"
                 cy="153.26933"
                 r="6.1510782" />
              <rect
                 style="fill:#ffffff;fill-opacity:1;stroke:#888888;stroke-width:2.54857;stroke-linecap:square;stroke-miterlimit:10;stroke-dasharray:none;stroke-opacity:1"
                 id="rect1355-5-8-4-6-7"
                 width="22.396709"
                 height="6.7430949"
                 x="221.257"
                 y="149.89778"
                 ry="3.3715475" />
            </g>
          </g>
          <path
             d="m 76.207512,147.33842 c 0.559526,-0.12034 1.04094,0.40012 0.840883,0.92058 -0.959631,2.92115 -2.641395,7.60217 -4.442065,11.36244 -1.480094,3.0415 -4.160376,4.84217 -6.281387,5.88127 1.559804,-2.40068 3.400976,-6.16095 3.400976,-10.48259 0,-1.80051 -0.320403,-3.52132 -0.84088,-5.08104 2.441336,-1.3207 5.281095,-2.12092 7.322473,-2.60073 z m -13.324184,-2.52103 c 0.27977,-0.40012 0.879931,-0.40012 1.200339,0 1.480104,2.08027 3.641682,5.92209 3.641682,10.2029 0,4.92179 -2.880501,9.20261 -4.242004,11.00314 -1.400407,-1.80053 -4.242008,-6.08135 -4.242008,-11.00314 0,-4.28081 2.161533,-8.12271 3.641673,-10.2029 z m -4.84218,5.12184 c -0.479818,1.55982 -0.840872,3.28062 -0.840872,5.08106 0,4.32163 1.841162,8.08189 3.400966,10.48257 -2.120927,-1.00027 -4.84218,-2.80078 -6.281387,-5.88126 -1.800513,-3.76043 -3.480666,-8.44321 -4.442066,-11.36244 -0.159419,-0.52047 0.279769,-1.04093 0.840882,-0.92058 2.081833,0.47982 4.921801,1.28004 7.322477,2.60074 z m -4.560497,16.36386 c -2.960201,-2.28033 -6.722312,-6.96117 -8.84331,-9.72155 -0.318841,-0.44078 -0.118782,-1.04095 0.440766,-1.16126 1.480105,-0.27977 3.280607,-0.47982 5.081038,-0.55952 0.720534,1.88021 1.559806,3.84173 2.400689,5.60159 1.84116,3.84174 5.242295,6.00172 7.761404,7.08162 -1.999007,0.40011 -4.680927,0.44077 -6.841142,-1.241 z m 20.00569,0 c -2.159966,1.68016 -4.842166,1.64111 -6.801933,1.241 2.480387,-1.07999 5.881273,-3.24156 7.761405,-7.08162 0.840882,-1.75986 1.680163,-3.72138 2.400688,-5.60159 1.80051,0.0797 3.60102,0.27977 5.081039,0.55953 0.520476,0.0797 0.759583,0.72051 0.440764,1.15968 -2.159965,2.7617 -5.922081,7.44291 -8.882124,9.72316 z"
             id="path1101-8-0-0"
             style="fill:#7ec968;fill-opacity:1;stroke-width:0.400026;stroke-miterlimit:10;stroke-dasharray:none" />
        </g>
      </g>
      <text
         xml:space="preserve"
         id="text2243-0"
         style="font-style:normal;font-variant:normal;font-weight:normal;font-stretch:normal;font-size:22.5778px;line-height:1.05;font-family:'Freestyle Script';-inkscape-font-specification:'Freestyle Script, Normal';font-variant-ligatures:normal;font-variant-caps:normal;font-variant-numeric:normal;font-variant-east-asian:normal;letter-spacing:1.78014px;word-spacing:0.222517px;white-space:pre;shape-inside:url(#rect2245-4);fill:#20649d;fill-opacity:1;stroke:#20649d;stroke-width:0.495354;stroke-miterlimit:4;stroke-dasharray:none;stroke-opacity:1;"
         transform="matrix(1.0543739,0,0,1.0543739,-56.876223,9.8548536)"><tspan
           x="145.14258"
           y="37.521361"><tspan
             dx="0 0 0 0 0 0 -0.22251569"
             style="font-style:normal;font-variant:normal;font-weight:normal;font-stretch:normal;font-size:22.5778px;font-family:'Freestyle Script';-inkscape-font-specification:'Freestyle Script, Normal';font-variant-ligatures:normal;font-variant-caps:normal;font-variant-numeric:normal;font-variant-east-asian:normal;stroke:#20649d;stroke-width:0.495354;stroke-miterlimit:4;stroke-dasharray:none;stroke-opacity:1">Ripple
</tspan></tspan><tspan
           x="145.14258"
           y="61.228049"><tspan
             style="font-style:normal;font-variant:normal;font-weight:normal;font-stretch:normal;font-size:22.5778px;font-family:'Freestyle Script';-inkscape-font-specification:'Freestyle Script, Normal';font-variant-ligatures:normal;font-variant-caps:normal;font-variant-numeric:normal;font-variant-east-asian:normal;stroke:#20649d;stroke-width:0.495354;stroke-miterlimit:4;stroke-dasharray:none;stroke-opacity:1">Tasks</tspan></tspan></text>
    </g>
  </g>
</svg>
