<?xml version="1.0" encoding="UTF-8"?>
<svg width="100pt" height="100pt" version="1.1" viewBox="0 0 100 100" xmlns="http://www.w3.org/2000/svg">
 <path d="m86.91 58.742c-2.8281 3.9023-6.0977 6.9375-9.7305 9.0391-6.0859 3.5117-12.957 4.3047-18.699 4.1133 4.3359 2.5312 9.8633 4.7656 15.875 4.7656 10.777 0 19.938-7.1406 23.379-10.211v-0.003907c0.074219-0.0625 0.11719-0.15625 0.11719-0.25781 0-0.097656-0.042968-0.19141-0.11719-0.25781-3.25-2.8945-6.8945-5.3164-10.824-7.1875z" fill="#20639c"/>
 <path d="m22.82 67.777c-3.6328-2.0977-6.9023-5.1367-9.7305-9.0352-3.9297 1.8711-7.5742 4.293-10.824 7.1875-0.074219 0.066406-0.11719 0.16016-0.11719 0.25781 0 0.10156 0.042968 0.19531 0.11719 0.25781 3.4375 3.0703 12.602 10.211 23.379 10.211 6.0117 0 11.539-2.2344 15.875-4.7656-5.7422 0.19922-12.613-0.59766-18.699-4.1133z" fill="#20639c"/>
 <path d="m62.859 46.293c0.46484-0.30859 0.9375-0.60156 1.4102-0.875 3.0469-1.7578 6.5547-2.9727 10.441-3.6094 0.79297-6.1172-0.046876-11.691-0.64453-14.543-0.019531-0.097656-0.078125-0.18359-0.16406-0.23438-0.085938-0.050781-0.19141-0.058594-0.28125-0.027344-2.7344 0.90234-7.9258 2.9336-12.793 6.6172 1.3828 3.7227 2.082 7.4141 2.082 10.977 0 0.5625-0.015625 1.125-0.050781 1.6953z" fill="#20639c"/>
 <path d="m35.73 45.418c0.47656 0.27344 0.94531 0.56641 1.4102 0.875-0.035156-0.56641-0.050781-1.1289-0.050781-1.6914 0-3.5625 0.69922-7.2539 2.082-10.977-4.8672-3.6836-10.055-5.7148-12.789-6.6172v-0.003906c-0.09375-0.03125-0.19922-0.019531-0.28516 0.027344-0.085937 0.050781-0.14453 0.13672-0.16406 0.23438-0.59375 2.8516-1.4375 8.4258-0.64062 14.543 3.8828 0.63672 7.3906 1.8477 10.438 3.6094z" fill="#20639c"/>
 <path d="m75.961 65.668c9.332-5.3906 13.699-16.156 15.141-20.535 0.03125-0.09375 0.019532-0.19922-0.03125-0.28125-0.046874-0.089843-0.13281-0.14844-0.23047-0.16797-4.5156-0.9375-16.023-2.5391-25.352 2.8438-1.0547 0.61328-2.0625 1.3008-3.0195 2.0586-1.5156 8.6719-6.6055 15.852-9.4961 19.352 5.4258 0.82812 15.004 1.3359 22.988-3.2695z" fill="#20639c"/>
 <path d="m34.512 47.527c-5.1562-2.9766-10.977-3.8164-15.914-3.8164-3.1719 0.007812-6.332 0.33203-9.4414 0.97266-0.09375 0.019531-0.17969 0.078125-0.22656 0.16797-0.050782 0.082032-0.0625 0.1875-0.03125 0.28125 1.4453 4.3789 5.8086 15.145 15.141 20.535 7.9805 4.6094 17.559 4.1016 22.988 3.2695-2.8906-3.5039-7.9805-10.684-9.4961-19.355-0.95703-0.75391-1.9648-1.4414-3.0195-2.0547z" fill="#20639c"/>
 <path d="m50.254 20.828c-0.0625-0.074219-0.15625-0.11719-0.25391-0.11719s-0.19141 0.042968-0.25391 0.11719c-3.0742 3.4961-10.219 12.812-10.219 23.77 0 10.957 7.1445 20.273 10.219 23.77 0.0625 0.074218 0.15625 0.12109 0.25391 0.12109s0.19141-0.046875 0.25391-0.12109c3.0742-3.4961 10.219-12.812 10.219-23.77 0-10.957-7.1484-20.27-10.219-23.77z" fill="#20639c"/>
</svg>
